<svg id="Layer_1" data-name="Layer 1" xmlns="http://www.w3.org/2000/svg" viewBox="0 0 323 255"><defs><style>.cls-1{fill:#73181a;}.cls-2{fill:#f2f2f2;}.cls-3{fill:#d92525;}.cls-4{fill:#d9d4d0;}</style></defs><title>bigbirb</title><path class="cls-1" d="M322.54,84.39,286.24,51.9a24.37,24.37,0,0,0-3,28.28l-2.32,2.6,12,10.7,2.44-2.73A24.38,24.38,0,0,0,322.54,84.39Z"/><path class="cls-2" d="M285.53,40.31l.29,5.35a34,34,0,0,0,.59,4.54,27.93,27.93,0,0,0,3.8,8.85c-4.06-.16-7.57-3.74-8.38-7.88a11.77,11.77,0,0,1,.36-6.05A9.83,9.83,0,0,1,285.53,40.31Z"/><path class="cls-2" d="M236.57,234.76a12.08,12.08,0,0,1,2.5,5.07,13.08,13.08,0,0,1-1.19,9.37,12,12,0,0,1-3.65,4.3l-.47-.06c.19-3.14.63-6.26.94-9.39.47-3.12.81-6.25,1.4-9.35Z"/><path class="cls-2" d="M277.35,227.11a11.91,11.91,0,0,1,2.5,5.07,12.6,12.6,0,0,1,.28,4.79,12.89,12.89,0,0,1-1.46,4.58,12.12,12.12,0,0,1-3.66,4.3l-.46-.06c.19-3.15.63-6.27.93-9.4.48-3.11.82-6.24,1.41-9.34Z"/><path class="cls-2" d="M238.58,236.64a11.94,11.94,0,0,1,4.23,3.75,12.51,12.51,0,0,1,2.07,4.33,12.73,12.73,0,0,1,.38,4.79,12.16,12.16,0,0,1-1.76,5.37L243,255c-1-3-1.78-6-2.68-9.06-.74-3.06-1.61-6.09-2.23-9.18Z"/><path class="cls-2" d="M278.4,227.27a11.94,11.94,0,0,1,4.23,3.75,12.51,12.51,0,0,1,2.07,4.33,12.73,12.73,0,0,1,.38,4.79,12.16,12.16,0,0,1-1.76,5.37l-.45.12c-1-3-1.79-6-2.69-9.06-.74-3.06-1.61-6.09-2.23-9.18Z"/><path class="cls-2" d="M278.47,227.61a11.93,11.93,0,0,1,5.58.85,12.68,12.68,0,0,1,4.09,2.52,12.53,12.53,0,0,1,2.91,3.82,12.07,12.07,0,0,1,1.44,5.46l-.32.35c-2.47-2-4.77-4.11-7.16-6.16s-4.66-4.24-6.86-6.5Z"/><path class="cls-2" d="M238.64,237a12,12,0,0,1,5.59.85,12.68,12.68,0,0,1,4.09,2.52,12.53,12.53,0,0,1,2.91,3.82,11.94,11.94,0,0,1,1.43,5.46l-.31.35c-2.47-2-4.77-4.11-7.17-6.16s-4.65-4.24-6.85-6.5Z"/><path class="cls-3" d="M271.47,28.6c-1.24-2.78-7.46-2.56-14.05,0s-14,8.6-16.4,16.4c-3.07,10.11,3,20.59,14.06,35.13,31.16,41.12,47.72,43.62,58.56,70.28,3.3,8.12,9.37,23.05,4.68,39.82-7.63,27.32-38,38.82-46.85,42.16-29.49,11.16-55.47,4.53-63.24,2.34-13.61-3.82-22.54-9.63-39.82-21.08-30.81-20.4-44.51-32.79-53.88-49.19-7.07-12.37,52.32-21.77,84.33-2.34,13.91,8.44,16.19,16.9,39.82,30.45,0,0,28,16,42.16,9.37,7.57-3.57-2.34-16.4-9.37-23.43-5.11-5.11-16.39-14-23.42-18.73-22-14.65-49.71-43.2-46.85-77.31,2.5-29.86,26-60.48,46.85-60.9,8.55-.17,20.43,4.68,23.42,0,2.28-3.57-2.39-9.88,0-11.71,1.53-1.17,5.23,0,7,2.34,2.19,2.81.12,5.39,2.34,9.37.33.59.59.91,4.69,4.69,6.08,5.6,6.59,5.89,7,7C294,37,291.9,42.84,287.87,45c-6.59,3.51-16.08-3.89-16.4-9.37C271.28,32.22,272.33,30.52,271.47,28.6Z"/><path class="cls-2" d="M121.56,150.41a113.21,113.21,0,0,0-.36-44.89,100.7,100.7,0,0,0-18.72-40.09A71.76,71.76,0,0,0,86.73,50.05a40.4,40.4,0,0,0-9.51-5.14,26.41,26.41,0,0,0-10.35-2,15.43,15.43,0,0,0-9.38,3.77,13.75,13.75,0,0,0-5.17,8.75,15.2,15.2,0,0,0,2.41,10.27A21.73,21.73,0,0,0,63,73.1a20.39,20.39,0,0,1-9.28-6.71A16.93,16.93,0,0,1,50,55.19a16.38,16.38,0,0,1,5.42-10.83A18.54,18.54,0,0,1,66.6,39.24a28.15,28.15,0,0,1,12,1.8,44,44,0,0,1,10.66,5.35,74.21,74.21,0,0,1,17,16.17,98.78,98.78,0,0,1,11.9,20,95.85,95.85,0,0,1,6.7,22.24,95,95,0,0,1,1.12,23.08A101.74,101.74,0,0,1,121.56,150.41Z"/><path class="cls-2" d="M111,151.58a136.59,136.59,0,0,0-21.59-37.2A114.29,114.29,0,0,0,74.35,99.3,138.5,138.5,0,0,0,57,86.82a73,73,0,0,0-19.17-8.65c-6.66-1.84-13.75-2.18-20.09.26a23,23,0,0,0-8.4,5.45,8.74,8.74,0,0,0-2.09,8.8A19,19,0,0,0,13,101.15a39.81,39.81,0,0,0,9,5.92,33.87,33.87,0,0,1-9.77-5,20.68,20.68,0,0,1-7.16-8.69,11.32,11.32,0,0,1-.65-6A12.26,12.26,0,0,1,7,81.91a25.25,25.25,0,0,1,9.32-6.85c7.16-3.27,15.36-2.94,22.63-1.19a75.47,75.47,0,0,1,20.48,8.94A134.37,134.37,0,0,1,77.2,95.92a104.69,104.69,0,0,1,15.09,16.2A110.63,110.63,0,0,1,111,151.58Z"/><path class="cls-2" d="M105.16,157.43a96.38,96.38,0,0,0-26.49-29.71,80.62,80.62,0,0,0-17.34-9.41,98.11,98.11,0,0,0-18.91-5.76c-6.41-1.25-13-1.67-19.2-.35a26.54,26.54,0,0,0-8.7,3.4,29.28,29.28,0,0,0-7,6.32,18.33,18.33,0,0,0-3.95,8.28,13.56,13.56,0,0,0,1.62,8.91,20.65,20.65,0,0,0,6.56,7.06,33.11,33.11,0,0,0,9.06,4.24,28.1,28.1,0,0,1-9.71-3.19,22.33,22.33,0,0,1-7.87-6.91A16.18,16.18,0,0,1,.54,129.82a21.1,21.1,0,0,1,4.07-10.09,30.17,30.17,0,0,1,7.67-7.57,30.6,30.6,0,0,1,10-4.28c7.05-1.64,14.24-1.18,21.07.07a98.12,98.12,0,0,1,19.75,6.28,77.14,77.14,0,0,1,17.82,10.58A81.76,81.76,0,0,1,105.16,157.43Z"/><path class="cls-2" d="M105.16,159.78c-9.7-6.54-20.38-11.5-31.56-13.62A63.08,63.08,0,0,0,40.25,149a60.55,60.55,0,0,0-15.11,7.38,28.24,28.24,0,0,0-6.1,5.39,13.49,13.49,0,0,0-3.3,6.82,14,14,0,0,0,1.14,7.65,19.36,19.36,0,0,0,4.63,6.68c4,3.89,9.9,5.52,15.72,5a19.6,19.6,0,0,1-17.2-3.2,21.84,21.84,0,0,1-5.93-7.14,17,17,0,0,1-2-9.35,14.31,14.31,0,0,1,.41-2.47c.26-.79.5-1.59.79-2.36l1.14-2.16c.4-.72.92-1.31,1.38-2a32.63,32.63,0,0,1,6.74-6.45,63.08,63.08,0,0,1,16.16-8.19,68.52,68.52,0,0,1,17.69-3.67,59,59,0,0,1,18,1.69A69.79,69.79,0,0,1,105.16,159.78Z"/><path class="cls-2" d="M105.16,166.8a85.2,85.2,0,0,0-25.37,1.34c-4.08,1-8.31,2-12.22,3.29a38.57,38.57,0,0,0-10.92,5.23,18.51,18.51,0,0,0-4,4,13.9,13.9,0,0,0-2,5,14.51,14.51,0,0,0,2.27,10.72,12.21,12.21,0,0,0,10,4.68,20.57,20.57,0,0,0,11.75-3.81,19.07,19.07,0,0,1-11.62,6.1,15.93,15.93,0,0,1-7-.64,13.56,13.56,0,0,1-6-4A17.69,17.69,0,0,1,46.28,185a17.39,17.39,0,0,1,2.57-6.94,23,23,0,0,1,5-5.2,41.42,41.42,0,0,1,12.38-5.68,97.9,97.9,0,0,1,12.91-2.65A59.33,59.33,0,0,1,105.16,166.8Z"/><path class="cls-2" d="M109.84,173.83a48.37,48.37,0,0,0-14.56,7.72,19.85,19.85,0,0,0-7.47,12.91c-1,5.12,0,10.25,4.53,12.08a13.55,13.55,0,0,0,7.45.67,22.83,22.83,0,0,0,7.71-2.93c-3.6,4.37-9.87,7.46-16.36,5.71a11,11,0,0,1-7.29-6.77,19.15,19.15,0,0,1-.66-9.5A22,22,0,0,1,86.5,185a22.8,22.8,0,0,1,6.64-6.39A31.36,31.36,0,0,1,109.84,173.83Z"/><path class="cls-2" d="M116.87,173.83a59,59,0,0,0-.63,12.32,26.42,26.42,0,0,0,3.21,11,13.27,13.27,0,0,0,3.08,4.2,4.43,4.43,0,0,0,4.1.84c3.33-.87,6.43-3.9,9-7.28-.85,4.16-3.1,8.53-7.76,10.72A8.13,8.13,0,0,1,120,205a15.08,15.08,0,0,1-4.65-5.63,23.05,23.05,0,0,1-2.71-13.22A26.31,26.31,0,0,1,116.87,173.83Z"/><circle class="cls-2" cx="282.36" cy="39.14" r="1.41"/><circle class="cls-2" cx="281.3" cy="8.61" r="6.26"/><path class="cls-2" d="M267.41,11.94c-1,5.16-.16,9.65,2.35,11,1.25.65,3.05.31,6.65-.39,3.4-.66,5.1-1,5.87-2,1.72-2.14.19-6.9-3.52-11.74"/><circle class="cls-2" cx="265.25" cy="9" r="6.26"/><path class="cls-4" d="M281.33,2.39a11.77,11.77,0,0,0-3.76,2.77,10.26,10.26,0,0,0-1.95,4.2A4.56,4.56,0,0,1,276,3.88a5,5,0,0,1,2.49-1.61A4.29,4.29,0,0,1,281.33,2.39Z"/><path class="cls-4" d="M270.15,7.59a10.35,10.35,0,0,0-3.43-3.32,8.59,8.59,0,0,0-4.66-.67,4.24,4.24,0,0,1,2.49-1.53,4.66,4.66,0,0,1,3.08.41,4.83,4.83,0,0,1,2.15,2.23A4.57,4.57,0,0,1,270.15,7.59Z"/><circle class="cls-2" cx="272.69" cy="6.26" r="6.26"/><path class="cls-4" d="M276.46,1.24A4.31,4.31,0,0,1,278.64,3a4.94,4.94,0,0,1,.8,2.85,4.54,4.54,0,0,1-3.33,4.37,10.24,10.24,0,0,0,1.33-4.43A12,12,0,0,0,276.46,1.24Z"/><path class="cls-4" d="M269.9.85A11.94,11.94,0,0,0,267.7,5a10.24,10.24,0,0,0,.07,4.63,4.56,4.56,0,0,1-2-5.12A5,5,0,0,1,267.31,2,4.3,4.3,0,0,1,269.9.85Z"/><path class="cls-4" d="M286.9,5.87a4.54,4.54,0,0,1,1.27,2.61,4.83,4.83,0,0,1-.58,3,4.64,4.64,0,0,1-2.35,2,4.15,4.15,0,0,1-2.92.09,8.67,8.67,0,0,0,3.54-3.11A10.56,10.56,0,0,0,286.9,5.87Z"/><path class="cls-4" d="M259.66,6.24a10.36,10.36,0,0,0,.71,4.71,8.68,8.68,0,0,0,3.3,3.36,4.18,4.18,0,0,1-2.9-.29,4.61,4.61,0,0,1-2.2-2.2,4.77,4.77,0,0,1-.36-3.07A4.48,4.48,0,0,1,259.66,6.24Z"/><path class="cls-4" d="M269.17,16.05c.39,1.17.63,2.25,1,3.33s.69,2.13,1,3.32a5.93,5.93,0,0,1-1.95-3A6,6,0,0,1,269.17,16.05Z"/><path class="cls-4" d="M272.84,15.92c.39,1.17.64,2.25,1,3.33s.68,2.13,1,3.32a6,6,0,0,1-1.95-3A6.09,6.09,0,0,1,272.84,15.92Z"/><path class="cls-4" d="M281.85,20.22c-.39-1.17-.64-2.25-1-3.33s-.69-2.12-1-3.32a6.07,6.07,0,0,1,1.95,3A6.09,6.09,0,0,1,281.85,20.22Z"/><path class="cls-4" d="M278.27,21.06c-.39-1.17-.63-2.25-1-3.33s-.69-2.13-1-3.32a5.93,5.93,0,0,1,1.95,3A6,6,0,0,1,278.27,21.06Z"/></svg>
