<svg id="Layer_1" data-name="Layer 1" xmlns="http://www.w3.org/2000/svg" viewBox="0 0 34 34"><title>exit</title><path d="M34,4.57a72.79,72.79,0,0,1-7.59,7.33c-2.66,2.26-5.42,4.39-8.25,6.41S12.42,22.24,9.41,24A71,71,0,0,1,0,28.8a70.93,70.93,0,0,1,7.59-7.34q4-3.39,8.25-6.4t8.75-5.71A71.61,71.61,0,0,1,34,4.57Z"/><path d="M32.91,33A72.82,72.82,0,0,1,25,26q-3.7-3.72-7.07-7.72c-2.25-2.67-4.4-5.42-6.42-8.28A72,72,0,0,1,5.94,1a72.93,72.93,0,0,1,8,7Q17.6,11.7,21,15.71c2.24,2.67,4.39,5.42,6.41,8.28A72.7,72.7,0,0,1,32.91,33Z"/></svg>
