<svg id="Layer_1" data-name="Layer 1" xmlns="http://www.w3.org/2000/svg" viewBox="0 0 160 166"><defs><style>.cls-1{fill:#d9d4d0;}.cls-2{fill:#f2f2f2;}.cls-3{fill:#d92525;}</style></defs><title>lilbirb</title><path class="cls-1" d="M25.43,23.8c4,2.19.33,11.93,5.86,17.61.53.55,2.18,2.24,3.67,1.83s2-2.76,2.18-3.29c1.73-7.42-8.86-13.75-6.69-18.81,1-2.29,3.29-1.37,5-4.36,2.2-3.85.51-9.15-1.65-12.31C32.07,1.94,29.29-.33,28.46.23,27,1.2,33,9.68,30,13.05a2.93,2.93,0,0,1-2.83,1.07c-2.89-1-2.71-10-6.08-11.75-1.94-1,2.73,11.12,1.48,13.33-.44.77-1.69.8-1.94.81-4.69.13-7.94-9.85-9.25-9.37-.88.31.09,4.94.35,6.17,1.29,6,2.15,10,5,11.34C20.16,26.26,22.73,22.34,25.43,23.8Z"/><path class="cls-2" d="M49.94,140a23.79,23.79,0,0,1-2.21,6.26,37.56,37.56,0,0,1-7.6,10.15,23.32,23.32,0,0,1-5.4,3.87A23.44,23.44,0,0,1,36.94,154a36,36,0,0,1,3.37-5.4,36.48,36.48,0,0,1,4.24-4.74A23.81,23.81,0,0,1,49.94,140Z"/><path class="cls-2" d="M45.12,139.8a23.82,23.82,0,0,1,2.1,6.3,36.76,36.76,0,0,1,.66,6.33,35.74,35.74,0,0,1-.42,6.35,23.8,23.8,0,0,1-1.88,6.37,23.38,23.38,0,0,1-2.11-6.3,36.82,36.82,0,0,1-.22-12.68A23.41,23.41,0,0,1,45.12,139.8Z"/><path class="cls-2" d="M46,141.16A23.87,23.87,0,0,1,50.54,146a36.9,36.9,0,0,1,3.28,5.44,35.21,35.21,0,0,1,2.31,5.93,23.53,23.53,0,0,1,1,6.57,23.6,23.6,0,0,1-4.59-4.81,36.48,36.48,0,0,1-3.28-5.45,37.92,37.92,0,0,1-2.3-5.93A23.65,23.65,0,0,1,46,141.16Z"/><path class="cls-2" d="M85.86,140.7A23.86,23.86,0,0,1,83.65,147a37,37,0,0,1-3.37,5.4,36.4,36.4,0,0,1-4.23,4.74,23.65,23.65,0,0,1-5.4,3.88,23.39,23.39,0,0,1,2.21-6.27,36.47,36.47,0,0,1,3.37-5.4,37.15,37.15,0,0,1,4.24-4.74A23.81,23.81,0,0,1,85.86,140.7Z"/><path class="cls-2" d="M81,140.5a24,24,0,0,1,2.11,6.3,37.5,37.5,0,0,1,.24,12.68,23.8,23.8,0,0,1-1.88,6.37,23.38,23.38,0,0,1-2.11-6.3,36.55,36.55,0,0,1-.66-6.33,37.61,37.61,0,0,1,.43-6.34A24.2,24.2,0,0,1,81,140.5Z"/><path class="cls-2" d="M81.88,141.86a23.87,23.87,0,0,1,4.58,4.82,36.48,36.48,0,0,1,3.28,5.45,35.63,35.63,0,0,1,2.31,5.92,23.65,23.65,0,0,1,1,6.57,23.34,23.34,0,0,1-4.59-4.81,36.48,36.48,0,0,1-3.28-5.45,37,37,0,0,1-2.3-5.93A23.59,23.59,0,0,1,81.88,141.86Z"/><path class="cls-2" d="M96.74,65c-1.9-1.5,3.53-12.58,8.89-20.92,5.79-9,21.37-30.23,29.28-26.76,4.91,2.16,6.79,13.8,2.73,21-3.38,6-8.66,5-20.44,11.83C103.82,58,98.46,66.39,96.74,65Z"/><path class="cls-2" d="M105.65,72.23c-1.27-2,7.64-10.6,15.52-16.6,8.54-6.5,30.44-21.08,36.68-15.1,3.88,3.71,1.66,15.29-4.63,20.68-5.24,4.5-9.84,1.71-23.26,4.11C114.72,68,106.8,74.1,105.65,72.23Z"/><path class="cls-2" d="M107.69,88.15c-.9-2,8-7.72,15.67-11.49,8.33-4.09,29.45-12.81,34.33-6.73,3,3.78-.24,13.2-6.44,16.73-5.17,2.94-8.95-.17-21.16-.36C116.23,86.09,108.51,89.92,107.69,88.15Z"/><path class="cls-2" d="M112.58,98c-.3-1.74,8-4.42,14.86-5.77,7.46-1.46,26.06-3.88,28.63,2,1.6,3.64-3,10.41-8.67,11.88-4.72,1.23-7.05-2-16.68-4.79C119.78,98.21,112.85,99.59,112.58,98Z"/><path class="cls-2" d="M108.73,114.33c0-1.42,7-2.38,12.66-2.48,6.15-.11,21.29.61,22.51,5.63.75,3.12-3.87,7.86-8.58,8.23-3.94.31-5.33-2.62-12.61-6.17C114.44,115.51,108.73,115.62,108.73,114.33Z"/><path class="cls-3" d="M61.35,80.42c15.33-6.48,17.78-16,27.89-17.75,9.25-1.58,17.27,4.68,17.75,5.07,15.23,12.22,13.27,47.88-5.07,68.46-3,3.42-16.52,17.62-38,17.75-1.53,0-25.85-.26-40.57-20.29-7.27-9.89-14.8-28.15-7.61-40.57C21,84,28.49,87.85,41.07,75.34c1.27-1.26,12.75-13,15.21-30.42.6-4.21,1.73-12.23-2.53-15.21C50,27.1,41.44,24.48,41.07,24.63c-6,2.51-5.14,13.32-7.61,12.68-1.63-.42-2.38-3.33-2.53-5.07C30.14,23.17,42.46,9.71,56.28,9.42,67.08,9.19,79.06,17,81.64,27.17,87.38,49.88,58,81.85,61.35,80.42Z"/><path class="cls-2" d="M19.52,96.9a13.54,13.54,0,0,0-8.18-1.75c-2.61.35-4.89,1.88-7,4.28A7.2,7.2,0,0,1,6.38,95,8,8,0,0,1,11,92.65a8.56,8.56,0,0,1,5.05.83A7.61,7.61,0,0,1,19.52,96.9Z"/><path class="cls-2" d="M20.18,106.44a19.56,19.56,0,0,0-6-1,11.06,11.06,0,0,0-5.42,1.35c-3.31,1.74-5.24,5.39-6.43,9.51A11.45,11.45,0,0,1,3,109.72a10.24,10.24,0,0,1,4.56-5.19,10.45,10.45,0,0,1,6.82-1.1A10.75,10.75,0,0,1,20.18,106.44Z"/><path class="cls-2" d="M25.22,119.23a24.74,24.74,0,0,0-8.62-2.54,13.08,13.08,0,0,0-8.11,1.84A14.82,14.82,0,0,0,3.06,125,34.62,34.62,0,0,0,.5,133.66a19.74,19.74,0,0,1,.72-9.44,14.53,14.53,0,0,1,5.93-7.84,13.3,13.3,0,0,1,9.72-1.64A16.52,16.52,0,0,1,25.22,119.23Z"/><path class="cls-2" d="M25.23,125.57A13.45,13.45,0,0,0,17,126.81c-2.32,1.25-3.92,3.47-5.08,6.48a7.24,7.24,0,0,1,.38-4.88,8.06,8.06,0,0,1,3.48-3.82,8.61,8.61,0,0,1,5-1A7.61,7.61,0,0,1,25.23,125.57Z"/><path class="cls-2" d="M47.94,19.19a8.51,8.51,0,0,1,.22-1.72,11,11,0,0,1,.47-1.57,14.33,14.33,0,0,1,1.42-2.82L51.44,11l1.19,2.22A14.45,14.45,0,0,1,53.79,16a15,15,0,0,1,.33,1.54,9.06,9.06,0,0,1,.09,1.67,8.31,8.31,0,0,1-1.36-1,11.63,11.63,0,0,1-1.11-1.11A14.48,14.48,0,0,1,50,14.61l2.58.08a14.45,14.45,0,0,1-1.95,2.49,12.7,12.7,0,0,1-1.22,1.08A8.2,8.2,0,0,1,47.94,19.19Z"/></svg>
