<svg id="Layer_1" data-name="Layer 1" xmlns="http://www.w3.org/2000/svg" viewBox="0 0 670 612"><defs><style>.cls-1{fill:#0d0c0d;}.cls-2{fill:#d92525;}</style></defs><title>logo_1</title><path d="M137,323a22.83,22.83,0,0,1-10.81,3.26,34.58,34.58,0,0,1-4.49-.54,304.48,304.48,0,0,1-1.22-32.37c0-3.4.27-6.8.48-10.2a15.78,15.78,0,0,1,4.35-.47,28.29,28.29,0,0,1,7.88,1.15,20.47,20.47,0,0,1,2.72,10.41c0,1.76-3.33,6.32-4.69,7.54a18.43,18.43,0,0,1,6.67,4.15c.27.82,2,5,2,5.37C139.86,314.63,139,320.27,137,323Zm-5.78-34.13-2.85-2-4.7-.55a27.67,27.67,0,0,1,.35,4.15l.81,9.18a20.23,20.23,0,0,0,4.76-2.52A10.2,10.2,0,0,0,132,292.6c0-.21.07-.41.07-.62A8.45,8.45,0,0,0,131.22,288.86Zm5,20.26c-1.29-1.91-5-2.52-7.14-2.52a31.47,31.47,0,0,0-3.8.95v5.58a45.69,45.69,0,0,0,1,9.18c3.94-.07,10.67-3.54,10.67-8.16C137,313.2,136.73,309.87,136.25,309.12Z"/><path d="M153.87,326.52l-.62-12.64.41-15.1,3.67-.41-.2,13.47.2,14.68Z"/><path d="M183.65,327.2a22.43,22.43,0,0,1-13.46-5.37l1.08-3.87c2.79,2.51,8.5,6.25,12.31,6.25,2.72,0,6.12-2.38,6.12-5.37,0-2.45-3.2-4.28-5-5.44-4.29-2.72-9.11-.75-9.11-8,0-4.9,4.42-8.77,9.24-8.77,2.18,0,4.15,1.09,6.06,2L189.29,304c-1.63-1-3.19-2.59-5.23-2.59a4.89,4.89,0,0,0-4.69,4.7c0,4.08,13.53,2.78,13.53,13.8C192.9,324.89,188.07,327.2,183.65,327.2Z"/><path d="M216.56,326.18c-4.28.21-4.21-1.63-4.42-4.69a69.68,69.68,0,0,1-.48-7.54l.21-10.34-8-.34.21-3.6,5,.27,4.69-.14v-.06l.27-10.95H218l.2,10.13,5.24.54.34,3.61-5.92.47-.54,12.31c.34,1.84-.68,4.15.88,5.1s4.56.27,6,.54l.2,4.15C221.8,326.39,219.62,326.12,216.56,326.18Z"/><path d="M252.33,304.36c-2.45-.21-3.54-.89-5.58-.27a7.27,7.27,0,0,0-5.3,5.16l-.27,17.61A13.46,13.46,0,0,1,236,326c0-.14-.55-9.32-.55-9.38s.14-5.31.14-8.71v-9.72l2.79-.88.68,6.66a12.05,12.05,0,0,1,14.28-3.88Z"/><path d="M279.12,326.8c-7.82-.21-14.89-7.55-14.55-15.44s6.87-15.37,14.07-13.73c8.16,1.83,13.94,5,13.81,14.62C292.38,320.07,287,327.07,279.12,326.8ZM276.81,303c-4.35-.27-7.48,3.74-7.82,8.09a8.56,8.56,0,0,0,9.65,9.11c5.1-.48,9.39-3.13,9.45-8.23C288.16,306.33,282.25,303.34,276.81,303Z"/><path d="M340.12,323a22.9,22.9,0,0,1-10.82,3.26,34.22,34.22,0,0,1-4.48-.54,301.87,301.87,0,0,1-1.23-32.37c0-3.4.28-6.8.48-10.2a15.82,15.82,0,0,1,4.35-.47,28.3,28.3,0,0,1,7.89,1.15A20.57,20.57,0,0,1,339,294.23c0,1.76-3.33,6.32-4.69,7.54a18.39,18.39,0,0,1,6.66,4.15c.27.82,2,5,2,5.37C343,314.63,342.16,320.27,340.12,323Zm-5.78-34.13-2.86-2-4.69-.55a29,29,0,0,1,.34,4.15l.81,9.18a20.23,20.23,0,0,0,4.76-2.52,10.2,10.2,0,0,0,2.38-4.48c0-.21.07-.41.07-.62A8.63,8.63,0,0,0,334.34,288.86Zm5,20.26c-1.29-1.91-5-2.52-7.14-2.52a32.07,32.07,0,0,0-3.81.95v5.58a46.43,46.43,0,0,0,1,9.18c3.94-.07,10.68-3.54,10.68-8.16C340.12,313.2,339.84,309.87,339.37,309.12Z"/><path d="M380.16,326.46l-5.43-.14-.14-3.4-1.22-.14s-5.85,4.63-10.2,4.36c-5.17-.28-10.2-.07-10.75-7.89a22.21,22.21,0,0,1,3.68-14c2.24-3.47,5.5-5.17,9.92-5.3s10.2,4.49,10.2,4.49l.75-4.83,3.13.07.34,12.23Zm-8.43-13.6-.27-6.26-2.85-2.85s-6.8-1.36-9.66,2.85c-2,3-3.06,4.49-2.85,8.3.4,7.75,3.67,9.11,7.34,9.11,2,0,8.29-3.81,8.29-3.81Z"/><path d="M407.09,323.06c-3.67,3.8-8.5,4.55-13.53,2.78l.14-10.47-.07-14.14-.2-9.52.4-7.75,4.15-1.43-.2,12.45v10.13s2.51-2,4.42-2.32c2.38-.34,6,1.64,6,1.64C411.51,308.17,411.38,318.7,407.09,323.06ZM400,308.37l.07,15.37c2.65-1.16,7.68-1.77,7.14-8.37C407,312.38,405.87,307.21,400,308.37Z"/><path d="M440.62,305.58c.54,3.74.2,5.92.2,9.86a11.6,11.6,0,0,1-4,9.25c-2.38,2.31-5.17,1.9-8.36,1.29-2.72-.48-4-1.09-4.76-2a4.15,4.15,0,0,1-.68-1.5c-.21-.61-.28-1.22-.48-1.9a17.81,17.81,0,0,1-.82-5.3c-.06-1.7,0-3.54,0-6.4v-8.16h5c-.21,5.24-.89,10.27-.61,16.05.13,2.72,1.08,5.17,3.67,5.92,2.92.81,5.44-1.3,6.52-4.15a20.21,20.21,0,0,0,1-6.19c0-.95,0-1.9.06-2.79a11.87,11.87,0,0,1,.21-2.31l1.22-6.25,6.26.61.2,3.53Z"/><path d="M467.14,327.2a22.46,22.46,0,0,1-13.47-5.37l1.09-3.87c2.79,2.51,8.5,6.25,12.31,6.25,2.72,0,6.12-2.38,6.12-5.37,0-2.45-3.2-4.28-5-5.44-4.29-2.72-9.12-.75-9.12-8,0-4.9,4.42-8.77,9.25-8.77,2.18,0,4.15,1.09,6,2L472.78,304c-1.63-1-3.2-2.59-5.24-2.59a4.9,4.9,0,0,0-4.69,4.7c0,4.08,13.53,2.78,13.53,13.8C476.38,324.89,471.56,327.2,467.14,327.2Z"/><path d="M508.61,326.93l-.95-9.72c-.34-4-3.26-7.41-7.2-7.07-4.15.34-5.72,4.76-5.85,8.63l-.14,7.89-4.76-.14-.54-9.31V304.83l.2-10.87.61-11.43,4.22-.81-.2,7.68-.21,8.91-.07,9.79c4.08-1.5,5.44-4.49,9.73-3.67,3.6.61,5.84,1.83,7.48,5l.4,16.73Z"/><path d="M538.13,306.94l-4.69,3.67,4.28,4.08,5.91,6.94-2.85,2.24L530,313.27l-.41,13.25-5.3.41-.21-11.22V283.48l3.47-1.42,1.22,13.66,1,7.41.88,4.42,5.71-4.89,4.83-4.29,2.72,3.74Z"/><path d="M580.56,326.46l-5.44-.14-.14-3.4-1.22-.14s-5.85,4.63-10.2,4.36c-5.17-.28-10.2-.07-10.74-7.89a22.21,22.21,0,0,1,3.67-14c2.24-3.47,5.51-5.17,9.92-5.3s10.2,4.49,10.2,4.49l.75-4.83,3.13.07.34,12.23Zm-8.43-13.6-.28-6.26L569,303.75s-6.8-1.36-9.66,2.85c-2,3-3.06,4.49-2.85,8.3.41,7.75,3.67,9.11,7.34,9.11,2,0,8.3-3.81,8.3-3.81Z"/><path d="M632.32,307.76A304.26,304.26,0,0,1,583,474.17,300.39,300.39,0,0,1,546.24,520a294.16,294.16,0,0,1-45.17,37.83l-6.18,4-3.1,2c-1,.68-2.06,1.35-3.13,2l-6.38,3.73-3.19,1.86-1.59.93-1.64.86-6.56,3.39L466,578.31l-1.64.84-1.68.77L456,583c-2.25,1-4.45,2.12-6.76,3A294.83,294.83,0,0,1,334,608.68a298.86,298.86,0,0,1-166.36-51.94A305.41,305.41,0,0,1,57.52,422.27l-2.72-6.82c-.88-2.28-1.88-4.53-2.62-6.86l-2.38-6.95c-.77-2.32-1.65-4.61-2.28-7l-2.05-7.06c-.66-2.36-1.44-4.68-2-7.08l-1.7-7.15L41,369.8,40.54,368l-.34-1.81a303.27,303.27,0,0,1-6.15-58.44,297.81,297.81,0,0,1,86.87-213A299.34,299.34,0,0,1,449.31,29.3c2.31.87,4.51,2,6.77,3l6.72,3.08,1.68.78,1.64.84,3.28,1.7L476,42.1l1.63.86,1.6.94,3.18,1.87,6.38,3.74c1.07.6,2.1,1.28,3.13,2l3.09,2,6.19,4a296.5,296.5,0,0,1,45.15,37.89,302.81,302.81,0,0,1,80.45,154.1A305.24,305.24,0,0,1,632.32,307.76Zm-.7,0a297.6,297.6,0,0,0-5.87-58,289.6,289.6,0,0,0-17.31-55.64,295.44,295.44,0,0,0-65.38-95.41,303.62,303.62,0,0,0-45.17-36.24l-6.14-3.85-3.06-1.93c-1-.65-2-1.29-3.1-1.86l-6.31-3.55-3.15-1.78-1.58-.89-1.61-.81-6.46-3.26-3.23-1.63-1.62-.82L460,41.32l-6.61-2.94c-2.21-1-4.37-2-6.64-2.85a297.42,297.42,0,0,0-225.41.25A296.95,296.95,0,0,0,44,250.08a298.64,298.64,0,0,0-6.14,57.68A291.74,291.74,0,0,0,169.21,554.35a295.24,295.24,0,0,0,107.09,43.3,301.71,301.71,0,0,0,57.67,5.2,301.65,301.65,0,0,0,112.87-22.58c2.27-.83,4.43-1.91,6.65-2.87l6.6-3,1.65-.74,1.62-.82,3.23-1.64L473,568l1.62-.81,1.57-.9,3.15-1.78,6.31-3.56c1.06-.58,2.08-1.22,3.1-1.87l3.06-1.94,6.13-3.86a305.33,305.33,0,0,0,45.15-36.31,296.34,296.34,0,0,0,65.36-95.46,289.76,289.76,0,0,0,17.3-55.66A297.58,297.58,0,0,0,631.62,307.76Z"/><path d="M52.32,311.76a283.77,283.77,0,0,0,5.56,55.32,274.87,274.87,0,0,0,16.51,53A282.11,282.11,0,0,0,136.7,511a291.82,291.82,0,0,0,43,34.57l5.83,3.68,2.92,1.84c1,.62,1.94,1.23,3,1.78l6,3.39,3,1.7,1.5.85,1.54.77,6.15,3.13,3.07,1.56,1.54.78,1.57.7,6.3,2.82c2.1.92,4.16,1.95,6.33,2.73a287.61,287.61,0,0,0,52.7,15.93A291.34,291.34,0,0,0,336,592.85a287.83,287.83,0,0,0,54.94-4.93A278.12,278.12,0,0,0,618.05,311.76a283.48,283.48,0,0,0-83.59-198.49,281.32,281.32,0,0,0-91.2-60.55,283.35,283.35,0,0,0-214.69-.26c-2.16.78-4.22,1.81-6.33,2.72l-6.3,2.8-1.57.7-1.54.77L209.75,61l-6.15,3.11-1.54.77-1.5.85-3,1.69-6,3.37c-1,.55-2,1.16-3,1.78l-2.92,1.83-5.84,3.67a289.5,289.5,0,0,0-43.05,34.5,281.39,281.39,0,0,0-62.34,90.87,276.33,276.33,0,0,0-16.52,53A283.71,283.71,0,0,0,52.32,311.76Zm-.7,0A289.91,289.91,0,0,1,98.5,153.09a286.69,286.69,0,0,1,35-43.77,281.81,281.81,0,0,1,43-36.15l5.89-3.86,2.95-1.93c1-.64,2-1.29,3-1.86L194.45,62l3-1.79,1.52-.89,1.56-.82,6.26-3.25L210,53.57l1.57-.8,1.6-.74,6.41-2.94c2.14-1,4.24-2,6.45-2.85a285.3,285.3,0,0,1,395.9,265.52A288.62,288.62,0,0,1,616,367.47l-.32,1.72-.4,1.71-.81,3.4-1.63,6.82c-.49,2.28-1.23,4.5-1.86,6.75l-2,6.72c-.6,2.26-1.44,4.44-2.17,6.66l-2.28,6.62c-.7,2.23-1.65,4.36-2.5,6.54l-2.59,6.5A291.37,291.37,0,0,1,494.55,549.1,284.78,284.78,0,0,1,336,598.68,280.93,280.93,0,0,1,226.1,577c-2.21-.82-4.3-1.88-6.45-2.83l-6.41-2.93-1.61-.73-1.56-.8-3.13-1.62-6.26-3.23-1.56-.81-1.52-.89-3-1.78-6.08-3.56c-1-.57-2-1.21-3-1.86l-3-1.92-5.9-3.85a279.82,279.82,0,0,1-43-36.08,286.68,286.68,0,0,1-35-43.73A291.28,291.28,0,0,1,51.62,311.76Z"/><path class="cls-1" d="M592.93,470.3c-2.51-.78,0-15.35,1-21.4,2.48-14.63,7.56-44.55,16.51-45,5.11-.26,11.18,9.09,11.15,17.42,0,6.81-4.12,9.84-11.68,20.89C598.09,459.48,595.19,471,592.93,470.3Z"/><path class="cls-1" d="M595.51,474c-1.77-1.94,7.72-13.27,11.65-18,9.53-11.39,29-34.66,37-30.53,4.53,2.36,5.06,13.5.84,20.67-3.46,5.87-8.53,6.42-20.64,12.15C605.42,467.29,597.11,475.75,595.51,474Z"/><path class="cls-1" d="M594.92,483.73c-1.18-2.34,11-10.67,16.1-14.13,12.26-8.36,37.34-25.46,43.87-19.31,3.72,3.5,1.2,14.36-4.82,20.11-4.92,4.71-10,3.86-23.16,6.08C606.29,480,596,485.84,594.92,483.73Z"/><path class="cls-1" d="M587.6,492.26c-.16-2.61,14.35-5.45,20.37-6.62,14.57-2.85,44.35-8.66,47.93-.44,2,4.69-4.57,13.67-12.36,16.58-6.39,2.39-10.67-.38-23.68-3.55C599.54,493.28,587.75,494.62,587.6,492.26Z"/><path class="cls-1" d="M577.46,501c.53-2.57,15.28-1.51,21.39-1.06,14.81,1.07,45.08,3.26,46.37,12.13.74,5-8,12-16.27,12.76-6.78.63-10.19-3.16-21.92-9.63C588.72,505.1,577,503.31,577.46,501Z"/><path class="cls-1" d="M571,507c1.25-2.31,15.05,3,20.77,5.2,13.86,5.33,42.18,16.23,40.84,25.09-.76,5.05-11.12,9.16-19.28,7.48-6.67-1.37-8.83-6-18.17-15.59C580.61,514.19,569.9,509.06,571,507Z"/><path class="cls-1" d="M568.22,529.47c1-2,12.74,2.42,17.59,4.24,11.74,4.4,35.75,13.4,34.69,20.89-.61,4.28-9.34,7.82-16.24,6.47-5.65-1.11-7.5-5-15.47-13C576.36,535.48,567.28,531.23,568.22,529.47Z"/><path class="cls-1" d="M553.43,543.94c1-2,12.77,2.29,17.63,4,11.8,4.27,35.9,13,34.92,20.52-.57,4.29-9.26,7.92-16.17,6.64-5.66-1-7.56-4.92-15.6-12.87C561.64,549.86,552.51,545.71,553.43,543.94Z"/><path class="cls-2" d="M556.49,493.2c8.52,2.52,19.46-1.37,25.2-8.4,7.14-8.75,4.16-19.83,8.4-21a3.4,3.4,0,0,1,1.35,0c6.11.53,10,9.81,11.25,12.63,5.47,12.9.52,56.28-33.6,79.8-7.7,5.31-22.77,15.7-42,12.6-21.1-3.4-37.56-21.5-42-39.9-5.83-24.17,9.52-47,18.9-60.9,14.09-20.92,28.5-28.67,35.7-52.5,1.63-5.38,3.66-14.16,0-23.1-2.79-6.81-9.7-15.65-16.8-14.7-4,.53-6.56,3.91-8.4,6.3-4.28,5.56-4.23,10.31-6.3,18.9-2.87,11.93-7.42,21.26-8.4,21s2.52-7.75,0-16.8c-2.16-7.75-6.44-8.68-8.4-14.7-3.13-9.62,2.72-23,10.5-27.3,13.05-7.2,39.38,7.74,46.2,27.3,8.19,23.5-17.21,37.73-10.5,71.4C538.64,469.06,542.63,489.1,556.49,493.2Z"/><path class="cls-1" d="M613.78,574.88c-4.06,0-9.4-1.38-16.09-4.14l1.6-3.88c13.13,5.42,17.35,3.93,18.7,2.57,1-1,1.14-2.73,1.27-4.67.16-2.55.37-5.73,3.06-8,3-2.62,6.79-2.09,9.8-1.67,2.46.35,4,.5,4.74-.28,1-1,.27-3.6-.5-6.32-1.06-3.77-2.38-8.48.3-12.34,2-2.93,5.1-3.49,7.55-3.94s4-.8,5-2.35.76-3.16,0-6-1.71-6.25-.24-10.34c1.8-5,5.93-7.33,9.25-9.19,3.12-1.75,5-2.92,5.35-5.1.26-1.82-.71-3.09-2.45-5.2s-4.16-5-3.87-9.34,2.77-6.63,5-8.78,3.44-3.48,3.44-5.78c0-1.77-.75-2.71-2.2-4.33a14.2,14.2,0,0,1-4.08-8,15.75,15.75,0,0,1,1.46-8.9c.85-2.08,1.42-3.46.73-5.42-.57-1.63-1.47-2.18-3-3.08a13.61,13.61,0,0,1-5.24-4.92c-2.7-4.5-2-8.82-1.43-12.3.5-3.09.73-4.9-.48-6.33s-3-1.45-6.06-1.32-7.15.29-10.52-2.66-3.65-7.05-3.81-10.59c-.14-3.27-.27-6.09-2.58-8.4-4-3.94-11.72-4.06-16.49-1.7a8.89,8.89,0,0,0-3.6,3.3,41.71,41.71,0,0,1-6.45,6.9,43,43,0,0,1-7,5c-1.67,1-2.3,1.37-3,2.71-1.19,2.37-.67,4.3,0,6.75.7,2.61,1.57,5.85.1,9.84-1.61,4.37-5,6.8-7.43,8.58-1.89,1.37-3,2.27-3,3.06s1.24,1.55,3,2.54c2.1,1.19,4.71,2.68,5.36,5.64,1,4.31-2.67,9-11.39,14.8l-2.32-3.5c9.36-6.22,9.84-9.34,9.61-10.4s-1.75-2-3.34-2.88c-2.12-1.21-4.76-2.71-5.1-5.73-.37-3.29,2.2-5.14,4.67-6.93,2.24-1.62,4.78-3.46,6-6.63,1-2.74.44-4.85-.21-7.3-.75-2.77-1.6-5.92.3-9.72,1.22-2.45,2.71-3.32,4.59-4.44a39.42,39.42,0,0,0,6.41-4.6,36.65,36.65,0,0,0,5.86-6.28,13.2,13.2,0,0,1,5.09-4.52c6-3,15.91-2.89,21.31,2.5,3.48,3.46,3.66,7.56,3.82,11.18s.35,5.85,2.38,7.62,4.76,1.74,7.58,1.62c3.2-.13,6.84-.28,9.44,2.81s1.95,6.4,1.41,9.72-1,6.27.89,9.45a9.6,9.6,0,0,0,3.8,3.49c1.74,1.05,3.71,2.23,4.78,5.3,1.2,3.45.13,6.08-.81,8.39a11.7,11.7,0,0,0-1.19,6.7,10.22,10.22,0,0,0,3.06,5.78c1.53,1.72,3.26,3.67,3.26,7.12,0,4.18-2.5,6.63-4.7,8.78-1.89,1.86-3.53,3.46-3.71,6.06s1.26,4.38,2.92,6.39c1.83,2.21,3.9,4.72,3.37,8.47-.62,4.34-4.1,6.28-7.45,8.16-3.13,1.75-6.08,3.41-7.35,6.95-1,2.84-.37,5.26.33,7.81.79,2.9,1.68,6.17-.58,9.47-2.1,3.06-5.23,3.64-7.75,4.1-2.36.43-3.86.77-4.86,2.21-1.55,2.23-.61,5.58.3,8.81,1,3.72,2.12,7.56-.49,10.33-2.28,2.42-5.53,2-8.39,1.56-2.5-.35-4.87-.68-6.47.69-1.29,1.11-1.45,2.68-1.61,5.14s-.33,5.18-2.47,7.34C619.33,574.05,617,574.88,613.78,574.88Z"/><rect class="cls-1" x="476.43" y="494.25" width="17.32" height="2.1" transform="translate(-105.47 132.16) rotate(-14.01)"/><rect class="cls-1" x="474.55" y="505.61" width="17.32" height="2.1" transform="translate(-108.28 132.04) rotate(-14.01)"/><rect class="cls-1" x="472.45" y="516.11" width="17.32" height="2.1" transform="translate(-110.88 131.85) rotate(-14.01)"/><rect class="cls-1" x="474.55" y="524.51" width="17.32" height="2.1" transform="translate(-112.85 132.6) rotate(-14.01)"/><rect class="cls-1" x="474.55" y="532.91" width="17.32" height="2.1" transform="translate(-114.89 132.85) rotate(-14.01)"/><rect class="cls-1" x="476.65" y="541.31" width="17.32" height="2.1" transform="translate(-160.99 207.74) rotate(-20.8)"/><rect class="cls-1" x="480.85" y="549.71" width="17.32" height="2.1" transform="translate(-223.8 365.96) rotate(-33.85)"/><circle class="cls-1" cx="499.79" cy="390.3" r="2.1"/><path d="M126.76,119.62a99.71,99.71,0,0,0,6.86-15.05c.93-2.58,1.7-5.2,2.38-7.84a75.41,75.41,0,0,0,1.55-8c.24-1.33.32-2.68.43-4l.16-2v-2a33.51,33.51,0,0,0-.06-4c-.12-1.34-.13-2.68-.33-4s-.45-2.64-.63-4-.62-2.59-.93-3.89a53.15,53.15,0,0,0-2.5-7.63,68.31,68.31,0,0,0-18.75-26.47A55.38,55.38,0,0,0,101.05,22a33.41,33.41,0,0,0-7.78-2.32,18.37,18.37,0,0,0-7.76.2,5.45,5.45,0,0,0-.89.29c-.28.12-.58.21-.85.35a11.63,11.63,0,0,0-1.57.94A15.26,15.26,0,0,0,79.42,24a21.24,21.24,0,0,0-2.25,3.13,26,26,0,0,0-1.81,3.47,38.85,38.85,0,0,0-3.2,15.31,30.62,30.62,0,0,0,.91,7.67A22,22,0,0,0,76,60.45,22,22,0,0,0,87.7,69.08a21.77,21.77,0,0,0,3.57.85,14.24,14.24,0,0,0,3.51,0,11.06,11.06,0,0,0,1.64-.32c.26-.08.51-.19.76-.27l.38-.14.35-.19a7.62,7.62,0,0,0,2.52-1.94,14.13,14.13,0,0,0,2.91-6.45,29.26,29.26,0,0,0,.51-7.74,35.32,35.32,0,0,0-1.35-7.78,19.66,19.66,0,0,0-1.45-3.56,5.88,5.88,0,0,0-2.12-2.47c-.63-.41-1.71-.07-2.76.62a17.06,17.06,0,0,0-2.94,2.62,64.22,64.22,0,0,0-5,6.55l-.44-.25A50.14,50.14,0,0,1,92,41.32,18,18,0,0,1,94.91,38,6.44,6.44,0,0,1,97,36.76a5,5,0,0,1,1.38-.29l.76.06a4.79,4.79,0,0,1,.72.19,6.18,6.18,0,0,1,2.21,1.46,12.28,12.28,0,0,1,1.5,1.85,21.87,21.87,0,0,1,2,4,35,35,0,0,1,2.15,8.51,36,36,0,0,1,.28,4.42,28.3,28.3,0,0,1-.32,4.48,18.62,18.62,0,0,1-3.57,8.74A13.19,13.19,0,0,1,95.48,75a19.49,19.49,0,0,1-4.82.08,24.9,24.9,0,0,1-4.57-1A28.13,28.13,0,0,1,77.91,70a23.36,23.36,0,0,1-6.34-6.79,27.43,27.43,0,0,1-3.37-8.52,35.19,35.19,0,0,1-.77-8.89,40.66,40.66,0,0,1,1.24-8.73,37,37,0,0,1,3.08-8.24A27.52,27.52,0,0,1,77,21.65a18.22,18.22,0,0,1,3.59-2.8,16.36,16.36,0,0,1,2.1-1c.37-.14.75-.24,1.12-.35a6.3,6.3,0,0,1,1.12-.27,20.84,20.84,0,0,1,8.81.35,43.8,43.8,0,0,1,8,2.88,63.38,63.38,0,0,1,7.39,4.12A77.24,77.24,0,0,1,116,29.49a88.86,88.86,0,0,1,12.17,11.75,65,65,0,0,1,9.36,14.31,44.33,44.33,0,0,1,3,8.12c.34,1.4.75,2.8,1,4.21s.41,2.87.61,4.3.18,2.89.28,4.33a38.91,38.91,0,0,1,0,4.32l-.1,2.16L142,85.13c-.18,1.43-.34,2.85-.66,4.25a59.66,59.66,0,0,1-2.14,8.29,64.49,64.49,0,0,1-3.15,7.91,68.25,68.25,0,0,1-8.9,14.32Z"/><path d="M111.21,138.05a99.54,99.54,0,0,0-6.5-15.21c-1.28-2.42-2.69-4.77-4.17-7a76.24,76.24,0,0,0-4.86-6.53c-.82-1.07-1.76-2-2.68-3l-1.38-1.48-1.48-1.36a36,36,0,0,0-3-2.66C86.06,99.94,85.06,99,84,98.3s-2.24-1.45-3.35-2.2-2.33-1.3-3.5-1.95a52.92,52.92,0,0,0-7.32-3.29,68.27,68.27,0,0,0-32.19-4,55.16,55.16,0,0,0-15.83,4.36,33.06,33.06,0,0,0-7,4.18,18.45,18.45,0,0,0-5.08,5.86,4.26,4.26,0,0,0-.38.85c-.11.29-.24.57-.33.87a12.6,12.6,0,0,0-.36,1.79,15.43,15.43,0,0,0,0,3.78,21.73,21.73,0,0,0,.79,3.78A27.93,27.93,0,0,0,10.81,116,38.87,38.87,0,0,0,20,128.69a30.42,30.42,0,0,0,6.28,4.49,21.87,21.87,0,0,0,7,2.48,22,22,0,0,0,14.27-2.84,20.45,20.45,0,0,0,3-2.06A14.74,14.74,0,0,0,53,128.2a11.87,11.87,0,0,0,.87-1.43c.12-.25.2-.5.31-.75l.16-.38.09-.38a7.5,7.5,0,0,0,.26-3.17,14,14,0,0,0-2.8-6.5A28.94,28.94,0,0,0,46.49,110a34.91,34.91,0,0,0-6.65-4.25,20.18,20.18,0,0,0-3.61-1.33,6,6,0,0,0-3.25-.1c-.73.19-1.2,1.22-1.4,2.46a16.08,16.08,0,0,0,0,3.93A63,63,0,0,0,33,118.86l-.48.15A49.74,49.74,0,0,1,29.93,111a17.89,17.89,0,0,1-.46-4.38,6.71,6.71,0,0,1,.48-2.41,4.77,4.77,0,0,1,.72-1.21c.17-.18.36-.35.55-.52a5.69,5.69,0,0,1,.63-.41,6.28,6.28,0,0,1,2.57-.64,11.51,11.51,0,0,1,2.37.13,22,22,0,0,1,4.34,1.19,36.51,36.51,0,0,1,11.18,6.92,26.65,26.65,0,0,1,3.09,3.27,18.6,18.6,0,0,1,4.06,8.52,13.18,13.18,0,0,1-2.27,9.69A19.47,19.47,0,0,1,54,134.72a25.53,25.53,0,0,1-3.79,2.72,27.89,27.89,0,0,1-8.56,3.25,23.29,23.29,0,0,1-9.3.12,27.21,27.21,0,0,1-8.55-3.26,35,35,0,0,1-7.09-5.43,40.49,40.49,0,0,1-5.62-6.79,38.07,38.07,0,0,1-4-7.83,27.85,27.85,0,0,1-1.82-8.71,18.85,18.85,0,0,1,.36-4.54A14.71,14.71,0,0,1,6.28,102c.14-.36.32-.7.49-1.06a7.58,7.58,0,0,1,.55-1,21.07,21.07,0,0,1,6.2-6.27,44.52,44.52,0,0,1,7.56-4,63.55,63.55,0,0,1,8-2.68,77.14,77.14,0,0,1,8.26-1.73,89.7,89.7,0,0,1,16.88-1.07,64.58,64.58,0,0,1,16.88,2.74,44.9,44.9,0,0,1,8,3.27c1.27.69,2.57,1.33,3.81,2.08s2.4,1.62,3.59,2.44,2.25,1.81,3.38,2.71a40.25,40.25,0,0,1,3.18,2.94l1.52,1.53L96,103.53c.93,1.09,1.88,2.17,2.7,3.34a61.28,61.28,0,0,1,4.67,7.18,64.4,64.4,0,0,1,3.72,7.66,67.92,67.92,0,0,1,4.58,16.23Z"/><path d="M110.68,107.67a40.92,40.92,0,0,1,7.11-14.94,23.61,23.61,0,0,1,6.47-5.61,23.18,23.18,0,0,1,8.22-2.76,34.31,34.31,0,0,1,8.59-.08,47.7,47.7,0,0,1,8.31,1.81,66.88,66.88,0,0,1,15.29,7,79,79,0,0,1,24.34,23c.82,1.16,1.51,2.42,2.26,3.64s1.39,2.51,1.93,3.85a39.91,39.91,0,0,1,2.74,8.29,28.53,28.53,0,0,1,.55,8.91,24.09,24.09,0,0,1-2.56,8.69,30.15,30.15,0,0,1-5.22,7.11,64.59,64.59,0,0,1-6.28,5.64c-4.32,3.45-8.68,6.64-12.69,10.19A65.75,65.75,0,0,0,159,184.3a55.66,55.66,0,0,0-7,14.37,69.88,69.88,0,0,0-2,7.82,67.14,67.14,0,0,0-1.08,8,60.13,60.13,0,0,0,.76,16,40,40,0,0,0,2.22,7.63,27.15,27.15,0,0,0,4,6.73,21.77,21.77,0,0,0,2.67,2.76c.49.4,1,.81,1.51,1.17l1.6,1a26.33,26.33,0,0,0,7.19,2.71,37.77,37.77,0,0,0,3.83.64c1.3.09,2.6.22,3.91.2a46.78,46.78,0,0,0,7.83-.6,56.16,56.16,0,0,0,7.69-1.71,66.89,66.89,0,0,0,7.43-2.64,62.34,62.34,0,0,0,13.53-7.84c1.05-.76,2-1.65,3-2.48s1.89-1.74,2.73-2.7,1.68-1.92,2.48-2.9a37.16,37.16,0,0,0,2.1-3.13,31.55,31.55,0,0,0,1.74-3.3,27.49,27.49,0,0,0,1.22-3.47,24.29,24.29,0,0,0,.93-7.21,35.94,35.94,0,0,0-3.73-14.48,52.3,52.3,0,0,0-8.56-12.7A41.87,41.87,0,0,0,203.12,179c-4.36-2.2-9.2-3.25-13.27-1.64A18.15,18.15,0,0,0,184,181a32.29,32.29,0,0,0-4.9,5.61,43,43,0,0,0-6.23,13.92c-1.21,4.93-1.61,10.17-.31,14.88a16.66,16.66,0,0,0,3.27,6.32,21.81,21.81,0,0,0,5.75,4.69,27.14,27.14,0,0,0,7.06,2.87,18.1,18.1,0,0,0,7.4.46,7.77,7.77,0,0,0,3.16-1.25,5.73,5.73,0,0,0,1.93-2.62,10.46,10.46,0,0,0,.47-1.73,14.15,14.15,0,0,0,.14-1.86,19.46,19.46,0,0,0-.37-3.85,32.82,32.82,0,0,0-2.56-7.53,51.09,51.09,0,0,0-4-7l.48-.36a39.88,39.88,0,0,1,8,14.45,21.35,21.35,0,0,1,.72,4.24,16.3,16.3,0,0,1,0,2.21,12.78,12.78,0,0,1-.44,2.25,8.22,8.22,0,0,1-2.6,4,10.63,10.63,0,0,1-4.25,2,21.26,21.26,0,0,1-8.81,0,29.91,29.91,0,0,1-8.2-2.85,25.78,25.78,0,0,1-7.11-5.26,20.44,20.44,0,0,1-4.53-7.88,28.81,28.81,0,0,1-1.31-8.78,40.37,40.37,0,0,1,.93-8.66,48.31,48.31,0,0,1,6.61-16,36.84,36.84,0,0,1,5.66-6.81,24,24,0,0,1,7.78-5,18.67,18.67,0,0,1,4.75-1.17,20.77,20.77,0,0,1,4.8.1,28.66,28.66,0,0,1,8.74,2.72,46.94,46.94,0,0,1,13.76,10.71,54.71,54.71,0,0,1,9.51,14.38,42.09,42.09,0,0,1,4,17,29.94,29.94,0,0,1-1.3,8.91,37.71,37.71,0,0,1-1.57,4.2,41.79,41.79,0,0,1-4.67,7.49c-.94,1.11-1.86,2.24-2.89,3.26s-2.07,2-3.13,3-2.2,1.85-3.37,2.66a63.23,63.23,0,0,1-14.92,8.07,64.81,64.81,0,0,1-16.4,4,51,51,0,0,1-8.47.21c-1.42-.05-2.83-.25-4.24-.42a42,42,0,0,1-4.18-.91,29.29,29.29,0,0,1-7.91-3.4l-1.78-1.26c-.58-.43-1.12-.92-1.66-1.4a25,25,0,0,1-2.86-3.23,29.89,29.89,0,0,1-4-7.49,42.56,42.56,0,0,1-2.15-8.09,67.43,67.43,0,0,1-.57-16.54,79.46,79.46,0,0,1,3-16.24A61.7,61.7,0,0,1,157,183,67.63,67.63,0,0,1,167.46,170c3.95-3.89,8.21-7.39,12.21-11s7.72-7.33,9.79-11.74,2.3-9.39,1.26-14.27a34.37,34.37,0,0,0-2.44-7.18c-.48-1.18-1.14-2.3-1.7-3.46s-1.27-2.26-2-3.34a68.83,68.83,0,0,0-10-12.08,81.86,81.86,0,0,0-12.33-9.93c-1.12-.7-2.22-1.43-3.38-2.07s-2.3-1.3-3.47-1.91-2.38-1.13-3.56-1.71-2.42-1-3.67-1.44a37,37,0,0,0-15.25-2.39,20.12,20.12,0,0,0-13.49,6.58,42.76,42.76,0,0,0-8.12,13.75Z"/><path class="cls-2" d="M189.68,139.51c0,2.63-13.22,4.75-18.17,4.75-7.46,0-13.5-2.12-13.5-4.75s6-4.75,13.5-4.75S189.68,136.89,189.68,139.51Z"/><path class="cls-1" d="M191.47,139.33l-7.25-.34a43.76,43.76,0,0,0-7.24-.06c-4.83.35-9.61.91-14.42,1.5v-.05A59.89,59.89,0,0,1,177,138.65c2.42,0,4.84-.06,7.27-.08a46.23,46.23,0,0,1,7.23.71Z"/><path class="cls-2" d="M200.57,220.76c-.08,1.4-7.17,2.14-9.81,2-4-.22-7.12-1.53-7-2.93s3.35-2.35,7.32-2.13S200.65,219.36,200.57,220.76Z"/><path class="cls-1" d="M201.52,220.73c-1.3,0-2.57-.16-3.85-.31a16,16,0,0,0-3.84-.28c-2.58.13-5.12.29-7.72.33v-.05a23.32,23.32,0,0,1,7.72-.55c1.29.13,2.58.12,3.88.14a16,16,0,0,1,3.82.67Z"/><path class="cls-2" d="M149,208.66c-1.64,1.89,1.4,7.2,3,8.61,2.46,2.13,5.79,2.32,7.43.42s1-5.15-1.5-7.28S150.68,206.76,149,208.66Z"/><path class="cls-1" d="M148.59,208a9.63,9.63,0,0,1,2.85,1.55c.41.36.79.75,1.18,1.12l1.22,1.07a12.43,12.43,0,0,1,3.63,5.32l-.05,0c-1.24-1.78-2.42-3.5-3.78-5.16a8.11,8.11,0,0,0-1.13-1.14,13.34,13.34,0,0,0-1.32-.9c-.88-.6-1.75-1.2-2.62-1.84Z"/><path class="cls-2" d="M215.27,180.81c1,2.66,13.25.49,17.53-1.13,6.45-2.44,10.85-6.57,9.85-9.23s-7.05-2.84-13.49-.4S214.26,178.15,215.27,180.81Z"/><path class="cls-1" d="M213.63,181.17a37.6,37.6,0,0,1,6-3.07c2.11-.79,4.23-1.51,6.33-2.31a48.82,48.82,0,0,1,13.11-3v.05c-4.39.95-8.73,1.95-13,3.18a36.26,36.26,0,0,0-6.25,2.43l-6.13,2.73Z"/><path class="cls-2" d="M42,142.09c-2.74.52-3.32,9.57-2.7,12.81.92,4.86.14,12.24,2.88,11.73s7.93-8.74,7-13.61S44.73,141.58,42,142.09Z"/><path class="cls-1" d="M42,140.88a20.07,20.07,0,0,1,1.63,4.59c.29,1.6.5,3.21.82,4.8a26,26,0,0,1,0,9.71h0c0-1.62,0-3.23,0-4.84s-.09-3.21-.2-4.83a19.11,19.11,0,0,0-1-4.73L42,140.89Z"/><path class="cls-2" d="M95.5,37c-.69,1.21-7.37-1.28-9.67-2.59-3.45-2-5.69-4.54-5-5.75s4-.61,7.5,1.35S96.19,35.75,95.5,37Z"/><path class="cls-1" d="M96.37,37.36c-1.14-.62-2.23-1.29-3.31-2a15.85,15.85,0,0,0-3.32-2c-2.36-1-4.71-2-7-3.15l0-.05a23.87,23.87,0,0,1,7.16,2.95A38.6,38.6,0,0,0,93.28,35a17.14,17.14,0,0,1,3.12,2.31Z"/><path class="cls-2" d="M155.45,295.84c2.25.76,6.21-5,7-7.37,1.21-3.59.37-7.11-1.87-7.86s-5,1.53-6.26,5.12S153.21,295.08,155.45,295.84Z"/><path class="cls-1" d="M155,296.64a12.57,12.57,0,0,1,.56-3.7c.19-.59.44-1.17.66-1.75s.41-1.17.61-1.76A16.78,16.78,0,0,1,160.6,283l0,0c-1.24,2.16-2.48,4.25-3.6,6.46a12.82,12.82,0,0,0-.71,1.71c-.18.6-.29,1.21-.41,1.81-.28,1.2-.58,2.39-.91,3.6Z"/></svg>
