<svg id="Layer_1" data-name="Layer 1" xmlns="http://www.w3.org/2000/svg" viewBox="0 0 673 105"><defs><style>.cls-1{fill:#0d0c0d;}.cls-2{fill:#d92525;}</style></defs><title>logo</title><path class="cls-1" d="M121.94,13.27l.12,2.29a13.85,13.85,0,0,0,.26,1.93,11.87,11.87,0,0,0,1.62,3.78,4.1,4.1,0,0,1-3.58-3.36,5.1,5.1,0,0,1,.15-2.58A4.32,4.32,0,0,1,121.94,13.27Z"/><path class="cls-1" d="M101,96.28a5.21,5.21,0,0,1,1.07,2.17,5.46,5.46,0,0,1,.12,2,5.55,5.55,0,0,1-.63,2,5.18,5.18,0,0,1-1.56,1.83l-.2,0c.08-1.34.27-2.68.4-4s.35-2.67.6-4Z"/><path class="cls-1" d="M118.45,93a5.13,5.13,0,0,1,1.07,2.16,5.56,5.56,0,0,1-.51,4,5.12,5.12,0,0,1-1.56,1.84l-.2,0c.08-1.34.27-2.67.4-4s.35-2.67.6-4Z"/><path class="cls-1" d="M101.9,97.09a4.93,4.93,0,0,1,1.8,1.6,5.36,5.36,0,0,1,.89,1.85,5.53,5.53,0,0,1,.16,2,5.25,5.25,0,0,1-.75,2.29l-.2,0c-.43-1.27-.76-2.58-1.14-3.86s-.69-2.6-1-3.92Z"/><path class="cls-1" d="M118.9,93.09a4.93,4.93,0,0,1,1.8,1.6,5.36,5.36,0,0,1,.89,1.85,5.53,5.53,0,0,1,.16,2,5.25,5.25,0,0,1-.75,2.29l-.2,0c-.43-1.27-.76-2.58-1.14-3.86s-.69-2.6-1-3.92Z"/><path class="cls-1" d="M118.92,93.23a5.13,5.13,0,0,1,2.39.36,5.37,5.37,0,0,1,1.75,1.08,5.5,5.5,0,0,1,1.24,1.63,5.18,5.18,0,0,1,.61,2.33l-.13.15c-1.06-.84-2-1.75-3.06-2.63s-2-1.81-2.93-2.77Z"/><path class="cls-1" d="M101.92,97.23a5.13,5.13,0,0,1,2.39.36,5.37,5.37,0,0,1,1.75,1.08,5.5,5.5,0,0,1,1.24,1.63,5.18,5.18,0,0,1,.61,2.33l-.13.15c-1.06-.84-2-1.75-3.06-2.63s-2-1.81-2.93-2.77Z"/><path class="cls-2" d="M115.94,8.27c-.53-1.19-3.18-1.09-6,0s-6,3.67-7,7c-1.31,4.32,1.3,8.79,6,15,13.3,17.56,20.37,18.62,25,30,1.41,3.47,4,9.84,2,17-3.26,11.67-16.23,16.58-20,18a43.39,43.39,0,0,1-27,1c-5.81-1.63-9.62-4.11-17-9-13.15-8.71-19-14-23-21-3-5.28,22.34-9.29,36-1,5.94,3.61,6.91,7.22,17,13,0,0,12,6.85,18,4,3.23-1.52-1-7-4-10a83.78,83.78,0,0,0-10-8c-9.38-6.25-21.22-18.44-20-33,1.07-12.75,11.11-25.82,20-26,3.65-.07,8.72,2,10,0,1-1.52-1-4.22,0-5,.65-.5,2.23,0,3,1,.93,1.2,0,2.3,1,4,.14.25.25.39,2,2,2.59,2.39,2.81,2.52,3,3a4.44,4.44,0,0,1-2,5c-2.81,1.5-6.87-1.66-7-4C115.86,9.82,116.31,9.09,115.94,8.27Z"/><path class="cls-1" d="M51.94,60.27a48.45,48.45,0,0,0-.15-19.16A43.16,43.16,0,0,0,43.8,24a30.78,30.78,0,0,0-6.73-6.56A16.81,16.81,0,0,0,33,15.24a11.2,11.2,0,0,0-4.42-.87,6.58,6.58,0,0,0-4,1.61,5.89,5.89,0,0,0-2.21,3.74,6.52,6.52,0,0,0,1,4.38,9.24,9.24,0,0,0,3.53,3.17,8.79,8.79,0,0,1-4-2.86,7.2,7.2,0,0,1-1.57-4.79A6.94,6.94,0,0,1,23.72,15a7.88,7.88,0,0,1,4.76-2.18,12,12,0,0,1,5.11.76,18.68,18.68,0,0,1,4.55,2.29,31.4,31.4,0,0,1,7.23,6.9,42,42,0,0,1,5.09,8.55,41,41,0,0,1,2.85,9.49,40.76,40.76,0,0,1,.49,9.86A43.84,43.84,0,0,1,51.94,60.27Z"/><path class="cls-1" d="M47.44,60.77a58.43,58.43,0,0,0-9.21-15.88,48.91,48.91,0,0,0-6.44-6.43,58.19,58.19,0,0,0-7.42-5.33,31,31,0,0,0-8.18-3.7,13.78,13.78,0,0,0-8.57.11A9.87,9.87,0,0,0,4,31.87a3.71,3.71,0,0,0-.89,3.76A8.12,8.12,0,0,0,5.6,39.24a16.92,16.92,0,0,0,3.84,2.53,14.28,14.28,0,0,1-4.17-2.12,8.8,8.8,0,0,1-3.06-3.71,4.87,4.87,0,0,1-.28-2.55A5.3,5.3,0,0,1,3,31a10.63,10.63,0,0,1,4-2.92,14.91,14.91,0,0,1,9.66-.51,32.06,32.06,0,0,1,8.74,3.82A57.3,57.3,0,0,1,33,37a44.48,44.48,0,0,1,6.45,6.92A47.16,47.16,0,0,1,47.44,60.77Z"/><path class="cls-1" d="M44.94,63.27A41.15,41.15,0,0,0,33.63,50.59a34.22,34.22,0,0,0-7.4-4,41.47,41.47,0,0,0-8.07-2.46A20.81,20.81,0,0,0,10,44a11.63,11.63,0,0,0-3.72,1.45,12.72,12.72,0,0,0-3,2.7,7.89,7.89,0,0,0-1.68,3.54,5.8,5.8,0,0,0,.69,3.8,8.84,8.84,0,0,0,2.8,3,13.71,13.71,0,0,0,3.87,1.81,12,12,0,0,1-4.15-1.36A9.67,9.67,0,0,1,1.43,56,6.88,6.88,0,0,1,.28,51.48,9,9,0,0,1,2,47.17a12.72,12.72,0,0,1,3.27-3.23,13.24,13.24,0,0,1,4.25-1.82,22,22,0,0,1,9,0A41.59,41.59,0,0,1,27,44.83a32.89,32.89,0,0,1,7.61,4.52A34.8,34.8,0,0,1,44.94,63.27Z"/><path class="cls-1" d="M44.94,64.27a36.51,36.51,0,0,0-13.47-5.81,26.89,26.89,0,0,0-14.24,1.21,26.09,26.09,0,0,0-6.45,3.15,11.75,11.75,0,0,0-2.6,2.3A5.85,5.85,0,0,0,6.76,68a6.17,6.17,0,0,0,.49,3.27,8.19,8.19,0,0,0,8.69,5A8.33,8.33,0,0,1,8.6,74.9a9.13,9.13,0,0,1-2.53-3.05,7.21,7.21,0,0,1-.86-4,6.06,6.06,0,0,1,.18-1c.11-.34.21-.68.33-1l.49-.92A8.41,8.41,0,0,1,6.8,64a13.43,13.43,0,0,1,2.88-2.76,27,27,0,0,1,6.9-3.5,29.23,29.23,0,0,1,7.55-1.56,25,25,0,0,1,7.67.72A29.79,29.79,0,0,1,44.94,64.27Z"/><path class="cls-1" d="M44.94,67.27a36.57,36.57,0,0,0-10.83.57c-1.74.42-3.55.83-5.22,1.41a16.59,16.59,0,0,0-4.66,2.23,7.79,7.79,0,0,0-1.7,1.69,5.74,5.74,0,0,0-.85,2.15,6.2,6.2,0,0,0,1,4.58,5.17,5.17,0,0,0,4.27,2,8.72,8.72,0,0,0,5-1.62,8.17,8.17,0,0,1-5,2.61,6.85,6.85,0,0,1-3-.28,5.88,5.88,0,0,1-2.58-1.72,7.55,7.55,0,0,1-1.62-5.83,7.37,7.37,0,0,1,1.09-3,9.66,9.66,0,0,1,2.15-2.22,17.62,17.62,0,0,1,5.28-2.43,42.41,42.41,0,0,1,5.51-1.13A25.48,25.48,0,0,1,44.94,67.27Z"/><path class="cls-1" d="M46.94,70.27a20.66,20.66,0,0,0-6.22,3.3,8.5,8.5,0,0,0-3.19,5.51c-.4,2.19,0,4.37,1.94,5.15a5.74,5.74,0,0,0,3.18.29,9.75,9.75,0,0,0,3.29-1.25,6.89,6.89,0,0,1-7,2.44,4.71,4.71,0,0,1-3.11-2.89,8.2,8.2,0,0,1-.28-4.06A9.5,9.5,0,0,1,37,75a9.7,9.7,0,0,1,2.84-2.73A13.35,13.35,0,0,1,46.94,70.27Z"/><path class="cls-1" d="M49.94,70.27a24.86,24.86,0,0,0-.27,5.26A11.38,11.38,0,0,0,51,80.23,5.56,5.56,0,0,0,52.36,82a1.9,1.9,0,0,0,1.75.36,8,8,0,0,0,3.83-3.11,6.23,6.23,0,0,1-3.31,4.58,3.46,3.46,0,0,1-3.37-.29,6.39,6.39,0,0,1-2-2.4,9.84,9.84,0,0,1-1.15-5.64A11.16,11.16,0,0,1,49.94,70.27Z"/><circle class="cls-1" cx="120.59" cy="12.77" r="0.6"/><path d="M160.86,90.65a22.73,22.73,0,0,1-10.81,3.27,33,33,0,0,1-4.49-.55A304.39,304.39,0,0,1,144.34,61c0-3.4.27-6.8.48-10.2a15.41,15.41,0,0,1,4.35-.48,28,28,0,0,1,7.89,1.16,20.56,20.56,0,0,1,2.72,10.4c0,1.77-3.34,6.32-4.7,7.55a18.35,18.35,0,0,1,6.67,4.15c.27.81,2,5,2,5.37C163.72,82.29,162.9,87.93,160.86,90.65Zm-5.78-34.13-2.85-2-4.69-.54a28.89,28.89,0,0,1,.34,4.14l.81,9.18a20.47,20.47,0,0,0,4.76-2.51,10.29,10.29,0,0,0,2.38-4.49c0-.21.07-.41.07-.61A8.45,8.45,0,0,0,155.08,56.52Zm5,20.26c-1.3-1.9-5-2.51-7.14-2.51a29.83,29.83,0,0,0-3.81,1v5.57a46.43,46.43,0,0,0,1,9.18c3.94-.07,10.67-3.53,10.67-8.16C160.86,80.86,160.59,77.53,160.12,76.78Z"/><path d="M177.05,55.23a1.89,1.89,0,0,1-1.16-2.31c.27-1.09,1.63-1.36,2.79-1a1.88,1.88,0,0,1,.95,2.65A2,2,0,0,1,177.05,55.23Zm.68,39-.61-12.65.4-15.09L181.2,66,181,79.5l.21,14.69Z"/><path d="M207.51,94.87a22.43,22.43,0,0,1-13.46-5.37l1.08-3.88c2.79,2.52,8.5,6.26,12.31,6.26,2.72,0,6.12-2.38,6.12-5.38,0-2.44-3.19-4.28-5-5.44-4.28-2.72-9.11-.74-9.11-8,0-4.89,4.42-8.77,9.25-8.77,2.17,0,4.14,1.09,6.05,2l-1.57,5.37c-1.63-1-3.19-2.58-5.23-2.58a4.88,4.88,0,0,0-4.69,4.69c0,4.08,13.53,2.79,13.53,13.8C216.76,92.56,211.93,94.87,207.51,94.87Z"/><path d="M240.42,93.85c-4.28.2-4.21-1.63-4.42-4.69a69.87,69.87,0,0,1-.47-7.55l.2-10.34-7.95-.34.2-3.6,5,.27,4.69-.13V67.4l.27-11h3.88l.2,10.13,5.24.55.34,3.6-5.92.48-.54,12.3c.34,1.84-.68,4.15.88,5.1s4.56.27,6,.55l.2,4.14C245.66,94.05,243.48,93.78,240.42,93.85Z"/><path d="M276.19,72c-2.45-.2-3.54-.88-5.58-.27a7.3,7.3,0,0,0-5.3,5.17L265,94.53a13.6,13.6,0,0,1-5.17-.89c0-.13-.54-9.31-.54-9.38s.13-5.3.13-8.7V65.83l2.79-.88.68,6.66a10.84,10.84,0,0,1,7.14-4.55,10.73,10.73,0,0,1,7.14.68Z"/><path d="M303,94.46c-7.82-.2-14.89-7.55-14.55-15.43s6.87-15.37,14.08-13.74c8.15,1.84,13.93,5,13.8,14.62C316.24,87.73,310.87,94.73,303,94.46Zm-2.31-23.8c-4.35-.27-7.48,3.74-7.82,8.09a8.56,8.56,0,0,0,9.66,9.11c5.09-.47,9.38-3.12,9.45-8.22C312,74,306.11,71,300.67,70.66Z"/><path d="M364,90.65a22.8,22.8,0,0,1-10.81,3.27,32.57,32.57,0,0,1-4.49-.55A301.78,301.78,0,0,1,347.45,61c0-3.4.28-6.8.48-10.2a15.49,15.49,0,0,1,4.35-.48,28,28,0,0,1,7.89,1.16,20.46,20.46,0,0,1,2.72,10.4c0,1.77-3.33,6.32-4.69,7.55a18.39,18.39,0,0,1,6.66,4.15c.27.81,2,5,2,5.37C366.83,82.29,366,87.93,364,90.65ZM358.2,56.52l-2.86-2-4.69-.54a28.89,28.89,0,0,1,.34,4.14l.82,9.18a20.47,20.47,0,0,0,4.76-2.51A10.39,10.39,0,0,0,359,60.26c0-.21.06-.41.06-.61A8.43,8.43,0,0,0,358.2,56.52Zm5,20.26c-1.29-1.9-5-2.51-7.14-2.51a30.25,30.25,0,0,0-3.81,1v5.57a46.43,46.43,0,0,0,1,9.18c3.95-.07,10.68-3.53,10.68-8.16C364,80.86,363.7,77.53,363.23,76.78Z"/><path d="M404,94.12,398.59,94l-.14-3.4-1.22-.13s-5.85,4.62-10.2,4.35c-5.17-.27-10.2-.07-10.74-7.89a22.1,22.1,0,0,1,3.67-14c2.24-3.47,5.5-5.17,9.92-5.31s10.2,4.49,10.2,4.49l.75-4.83,3.13.07.34,12.24Zm-8.44-13.6-.27-6.25-2.85-2.86s-6.8-1.36-9.66,2.86c-2,3-3.06,4.48-2.85,8.29.4,7.75,3.67,9.11,7.34,9.11,2,0,8.29-3.81,8.29-3.81Z"/><path d="M431,90.72c-3.68,3.81-8.5,4.56-13.54,2.79L417.56,83l-.07-14.15-.2-9.51.41-7.76,4.14-1.42-.2,12.44V72.77s2.52-2,4.42-2.31c2.38-.34,6,1.63,6,1.63C435.37,75.83,435.24,86.37,431,90.72ZM423.88,76,424,91.4c2.65-1.16,7.68-1.77,7.14-8.36C430.82,80.05,429.73,74.88,423.88,76Z"/><path d="M464.48,73.25c.54,3.74.2,5.91.2,9.85a11.56,11.56,0,0,1-4,9.25c-2.38,2.31-5.17,1.91-8.36,1.29-2.72-.47-4-1.08-4.76-2a4.1,4.1,0,0,1-.68-1.49c-.21-.62-.27-1.23-.48-1.91a17.73,17.73,0,0,1-.81-5.3c-.07-1.7,0-3.54,0-6.39V68.42h5c-.2,5.23-.88,10.26-.61,16,.13,2.71,1.08,5.16,3.67,5.91,2.92.82,5.44-1.29,6.53-4.15a20.44,20.44,0,0,0,.95-6.18c0-1,0-1.91.07-2.79a11.83,11.83,0,0,1,.2-2.31l1.22-6.26,6.26.61.2,3.54Z"/><path d="M491,94.87a22.48,22.48,0,0,1-13.47-5.37l1.09-3.88c2.79,2.52,8.5,6.26,12.31,6.26,2.72,0,6.12-2.38,6.12-5.38,0-2.44-3.2-4.28-5-5.44-4.29-2.72-9.11-.74-9.11-8,0-4.89,4.42-8.77,9.24-8.77,2.18,0,4.15,1.09,6.05,2l-1.56,5.37c-1.63-1-3.19-2.58-5.23-2.58a4.89,4.89,0,0,0-4.7,4.69c0,4.08,13.53,2.79,13.53,13.8C500.24,92.56,495.42,94.87,491,94.87Z"/><path d="M532.48,94.6l-1-9.73c-.34-4-3.26-7.41-7.2-7.07-4.15.34-5.71,4.76-5.85,8.64l-.14,7.88-4.76-.13L513,84.87V72.5l.2-10.88.62-11.42,4.21-.82-.2,7.68L517.65,66l-.06,9.79c4.08-1.49,5.43-4.49,9.72-3.67,3.6.61,5.85,1.84,7.48,5l.41,16.73Z"/><path d="M562,74.61l-4.69,3.67,4.28,4.08,5.92,6.93-2.86,2.25L553.83,80.93l-.41,13.26-5.3.41-.21-11.22V51.15l3.47-1.43,1.23,13.67.95,7.41.88,4.42,5.71-4.9L565,66l2.72,3.74Z"/><path d="M604.42,94.12,599,94l-.14-3.4-1.22-.13s-5.85,4.62-10.2,4.35c-5.17-.27-10.2-.07-10.74-7.89a22.16,22.16,0,0,1,3.67-14c2.24-3.47,5.51-5.17,9.93-5.31s10.19,4.49,10.19,4.49l.75-4.83,3.13.07.34,12.24ZM596,80.52l-.27-6.25-2.86-2.86s-6.8-1.36-9.65,2.86c-2,3-3.06,4.48-2.86,8.29.41,7.75,3.67,9.11,7.34,9.11,2,0,8.3-3.81,8.3-3.81Z"/><path class="cls-1" d="M629.44,90.77a9.49,9.49,0,0,1-.87,2.47,14.94,14.94,0,0,1-1.33,2.13,14,14,0,0,1-1.67,1.87,9,9,0,0,1-2.13,1.53,9.14,9.14,0,0,1,.87-2.47,14.61,14.61,0,0,1,1.33-2.13,15.51,15.51,0,0,1,1.67-1.87A9.65,9.65,0,0,1,629.44,90.77Z"/><path class="cls-1" d="M627.54,90.69a9.72,9.72,0,0,1,.83,2.49,14.64,14.64,0,0,1,.09,5,9.3,9.3,0,0,1-.74,2.51,8.84,8.84,0,0,1-.83-2.48,14.65,14.65,0,0,1-.09-5A8.92,8.92,0,0,1,627.54,90.69Z"/><path class="cls-1" d="M627.87,91.23a9.19,9.19,0,0,1,1.8,1.9,14.3,14.3,0,0,1,1.3,2.15,13.41,13.41,0,0,1,.91,2.33,9.07,9.07,0,0,1,.4,2.6,9.24,9.24,0,0,1-1.81-1.9,14.82,14.82,0,0,1-2.2-4.49A9.06,9.06,0,0,1,627.87,91.23Z"/><path class="cls-1" d="M643.61,91.05a9.51,9.51,0,0,1-.88,2.47,15.46,15.46,0,0,1-1.32,2.13,14.13,14.13,0,0,1-1.68,1.87,9.36,9.36,0,0,1-2.12,1.53,8.81,8.81,0,0,1,.87-2.47,12.91,12.91,0,0,1,1.33-2.13,14,14,0,0,1,1.67-1.87A9.42,9.42,0,0,1,643.61,91.05Z"/><path class="cls-1" d="M641.7,91a9.23,9.23,0,0,1,.83,2.49,14.93,14.93,0,0,1,.1,5,9.63,9.63,0,0,1-.74,2.52,9.38,9.38,0,0,1-.84-2.49,14.64,14.64,0,0,1-.09-5A9.67,9.67,0,0,1,641.7,91Z"/><path class="cls-1" d="M642,91.51a9.19,9.19,0,0,1,1.8,1.9,14.35,14.35,0,0,1,2.21,4.48,9.42,9.42,0,0,1,.39,2.59,9.41,9.41,0,0,1-1.8-1.89,15.37,15.37,0,0,1-1.3-2.15,15.75,15.75,0,0,1-.91-2.34A9.42,9.42,0,0,1,642,91.51Z"/><path class="cls-1" d="M647.9,61.2c-.75-.59,1.39-5,3.5-8.25C653.69,49.39,659.83,41,663,42.4c1.94.85,2.68,5.44,1.08,8.29-1.34,2.37-3.42,2-8.06,4.66C650.69,58.42,648.57,61.74,647.9,61.2Z"/><path class="cls-1" d="M651.41,64.05c-.5-.82,3-4.19,6.12-6.56,3.37-2.56,12-8.31,14.47-6,1.53,1.46.65,6-1.83,8.16-2.07,1.77-3.88.67-9.17,1.62C655,62.39,651.87,64.78,651.41,64.05Z"/><path class="cls-1" d="M652.21,70.32c-.35-.77,3.15-3,6.19-4.53,3.28-1.61,11.61-5.05,13.54-2.65,1.19,1.49-.1,5.2-2.55,6.59-2,1.16-3.53-.06-8.34-.14C655.58,69.51,652.54,71,652.21,70.32Z"/><path class="cls-1" d="M654.14,74.21c-.12-.68,3.14-1.74,5.86-2.27,3-.58,10.28-1.53,11.3.78.63,1.43-1.19,4.1-3.42,4.69-1.86.48-2.78-.81-6.58-1.89C657,74.29,654.25,74.83,654.14,74.21Z"/><path class="cls-1" d="M652.63,80.65c0-.56,2.75-.94,5-1,2.42,0,8.4.24,8.88,2.22.29,1.23-1.53,3.1-3.39,3.25-1.55.12-2.1-1-5-2.44C654.88,81.11,652.62,81.16,652.63,80.65Z"/><path class="cls-2" d="M633.94,67.27c6-2.55,7-6.32,11-7,3.65-.62,6.81,1.85,7,2,6,4.82,5.23,18.88-2,27a20.77,20.77,0,0,1-15,7c-.6,0-10.19-.1-16-8-2.87-3.9-5.84-11.1-3-16,2.08-3.59,5-2.07,10-7a22.48,22.48,0,0,0,6-12c.23-1.66.68-4.82-1-6a17.68,17.68,0,0,0-5-2c-2.36,1-2,5.25-3,5-.64-.16-.94-1.31-1-2-.31-3.57,4.55-8.88,10-9,4.26-.09,9,3,10,7C644.2,55.23,632.6,67.84,633.94,67.27Z"/><path class="cls-1" d="M617.44,73.77a5.39,5.39,0,0,0-3.22-.69,4.62,4.62,0,0,0-2.78,1.69,2.89,2.89,0,0,1,.82-1.75,3.13,3.13,0,0,1,1.81-.92,3.37,3.37,0,0,1,2,.32A3,3,0,0,1,617.44,73.77Z"/><path class="cls-1" d="M617.7,77.53a7.84,7.84,0,0,0-2.38-.41,4.4,4.4,0,0,0-2.13.54,5.78,5.78,0,0,0-2.54,3.75,4.5,4.5,0,0,1,.26-2.58,4,4,0,0,1,4.48-2.48A4.27,4.27,0,0,1,617.7,77.53Z"/><path class="cls-1" d="M619.69,82.58a9.8,9.8,0,0,0-3.4-1,5.11,5.11,0,0,0-3.2.73A5.72,5.72,0,0,0,611,84.84a13.64,13.64,0,0,0-1,3.43,7.86,7.86,0,0,1,.28-3.72,5.73,5.73,0,0,1,2.34-3.09,5.26,5.26,0,0,1,3.84-.65A6.58,6.58,0,0,1,619.69,82.58Z"/><path class="cls-1" d="M619.69,85.08a5.34,5.34,0,0,0-3.26.49,4.58,4.58,0,0,0-2,2.55,2.84,2.84,0,0,1,.15-1.92A3.14,3.14,0,0,1,616,84.69a3.44,3.44,0,0,1,2-.39A3,3,0,0,1,619.69,85.08Z"/><circle class="cls-1" cx="629.94" cy="42.27" r="1"/></svg>
